<svg xmlns="http://www.w3.org/2000/svg" viewBox="0 0 32 32"><path d="M29 7h-7V3a1 1 0 0 0-1-1H11a1 1 0 0 0-1 1v4H3a1 1 0 0 0-1 1v7a4 4 0 0 0 2 3.44V29a1 1 0 0 0 1 1h22a1 1 0 0 0 1-1V18.44A4 4 0 0 0 30 15V8a1 1 0 0 0-1-1zM12 4h8v6h-8zM6 28v-3h20v3zm20-5H6v-4a4 4 0 0 0 3.06-1.45 4.8 4.8 0 0 0 6.94-.07 4.8 4.8 0 0 0 6.94.07A4 4 0 0 0 26 19zm0-6a2 2 0 0 1-2-2 1 1 0 0 0-2 0 2.3 2.3 0 0 1-2.5 2 2.3 2.3 0 0 1-2.5-2 1 1 0 0 0-2 0 2.3 2.3 0 0 1-2.5 2 2.3 2.3 0 0 1-2.5-2 1 1 0 0 0-2 0 2 2 0 0 1-4 0V9h6v2a1 1 0 0 0 1 1h10a1 1 0 0 0 1-1V9h6v6a2 2 0 0 1-2 2zM14 7a1 1 0 0 1 1-1 1 1 0 0 1 2 0 1 1 0 0 1 0 2 1 1 0 0 1-2 0 1 1 0 0 1-1-1z"/></svg>